<svg fill="none" height="22" viewBox="0 0 25 22" width="25" xmlns="http://www.w3.org/2000/svg"><g fill="#000" fill-opacity=".7"><path d="m6.24984 8.79984c1.15059 0 2.08333-.98497 2.08333-2.19998 0-1.21502-.93274-2.19999-2.08333-2.19999-1.1506 0-2.08334.98497-2.08334 2.19999 0 1.21501.93274 2.19998 2.08334 2.19998z"/><path d="m14.5836 8.79984c1.1506 0 2.0833-.98497 2.0833-2.19998 0-1.21502-.9327-2.19999-2.0833-2.19999s-2.0834.98497-2.0834 2.19999c0 1.21501.9328 2.19998 2.0834 2.19998z"/><path d="m22.9166 8.79984c1.1506 0 2.0833-.98497 2.0833-2.19998 0-1.21502-.9327-2.19999-2.0833-2.19999s-2.0833.98497-2.0833 2.19999c0 1.21501.9327 2.19998 2.0833 2.19998z"/><path d="m6.24984 17.6001c1.15059 0 2.08333-.985 2.08333-2.2s-.93274-2.2-2.08333-2.2c-1.1506 0-2.08334.985-2.08334 2.2s.93274 2.2 2.08334 2.2z"/><path d="m14.5836 17.6001c1.1506 0 2.0833-.985 2.0833-2.2s-.9327-2.2-2.0833-2.2-2.0834.985-2.0834 2.2.9328 2.2 2.0834 2.2z"/><path d="m18.7501 13.1997c1.1506 0 2.0833-.985 2.0833-2.2 0-1.21499-.9327-2.19996-2.0833-2.19996s-2.0834.98497-2.0834 2.19996c0 1.215.9328 2.2 2.0834 2.2z"/><path clip-rule="evenodd" d="m2.42367 6.59997c0-1.08051.42213-2.0761 1.08869-2.79913.02888-.02876.05699-.05838.08428-.08883-.00809.0177-.01933.03434-.03398.0498.6875-.726 1.64584-1.16599 2.6875-1.16599 1.04167 0 2.00001.43999 2.68751 1.16599-.01431-.01511-.02537-.03134-.03342-.04858.37967.42295.91677.68674 1.51225.68674.5961 0 1.1338-.26441 1.5135-.68824-.0081.0178-.0194.03453-.0341.05008.6875-.726 1.6458-1.16599 2.6875-1.16599s2 .43999 2.6875 1.16599c-.0145-.01534-.0257-.03182-.0338-.04936.3798.42341.9171.68752 1.513.68752 1.1505 0 2.0833-.98497 2.0833-2.19999 0-1.215014-.9328-2.19998-2.0833-2.19998-.596 0-1.1335.26425-1.5133.687847.0081-.01778.0194-.034485.0341-.050014-.6875.725997-1.625 1.187987-2.6875 1.187987-1.0605 0-1.9964-.43831-2.6835-1.183703.0129.014516.023.03003.0304.04645-.3797-.424017-.9175-.688567-1.5138-.688567-.59564 0-1.13287.263933-1.51256.687086.00732-.015874.01719-.030893.02979-.044973-.68714.745397-1.62309 1.183707-2.68357 1.183707-1.04166 0-2-.46199-2.6875-1.187987.01483.015656.02617.032516.03428.05046-.37975-.423857-.91743-.688293-1.51361-.688293-1.15059 0-2.08333.984966-2.08333 2.19998 0 .62579.247424 1.19054.644603 1.59114-.011773-.00772-.022935-.01739-.033438-.02913.687505.72599 1.104165 1.73798 1.104165 2.83798 0 1.09999-.4375 2.11198-1.124998 2.83797.021224-.02241.044784-.03728.070348-.04539-.406565.40148-.66068.97295-.66068 1.60715 0 .6293.250182 1.1968.651239 1.5978-.016605-.0085-.032223-.0203-.046747-.0356.687498.7259 1.104168 1.7379 1.104168 2.8379s-.41667 2.112-1.104168 2.838c.014542-.0153.03018-.0272.046808-.0357-.401093.401-.6513.9686-.6513 1.5979 0 1.215.93274 2.2 2.08333 2.2 1.1506 0 2.08334-.985 2.08334-2.2 0-.6297-.25049-1.1975-.65197-1.5986.01712.0086.0332.0206.04813.0364-.6875-.726-1.125-1.738-1.125-2.838 0-1.1198.41507-2.1082 1.12094-2.8338-.01375.0137-.02845.0244-.04401.0322.02812-.0281.05551-.057.08211-.0867-.00736.0163-.01739.0316-.03027.046.68714-.7454 1.62309-1.1837 2.68356-1.1837 1.04167 0 2.00001.462 2.68751 1.188-.01438-.0152-.02548-.0315-.03353-.0488.37967.4229.91676.6867 1.51216.6867 1.1506 0 2.0834-.985 2.0834-2.2 0-1.21499-.9328-2.19996-2.0834-2.19996-.5953 0-1.13232.2637-1.51199.68653.00804-.01719.01909-.03338.03336-.04845-.6875.72598-1.64584 1.16598-2.68751 1.16598-1.04166 0-2-.44-2.6875-1.16598.01469.01551.02596.0322.03405.04995-.03298-.0368-.06715-.07239-.10245-.10672-.67521-.72043-1.07059-1.68813-1.07059-2.78108z" fill-rule="evenodd"/><path d="m10.4163 21.9999c1.1506 0 2.0834-.9849 2.0834-2.1999 0-1.2151-.9328-2.2-2.0834-2.2-1.15055 0-2.08329.9849-2.08329 2.2 0 1.215.93274 2.1999 2.08329 2.1999z"/><path d="m18.7501 21.9999c1.1506 0 2.0833-.9849 2.0833-2.1999 0-1.2151-.9327-2.2-2.0833-2.2s-2.0834.9849-2.0834 2.2c0 1.215.9328 2.1999 2.0834 2.1999z"/></g></svg>