<svg fill="none" height="20" viewBox="0 0 18 20" width="18" xmlns="http://www.w3.org/2000/svg"><path d="m6.20985 4.36869c-.12287 0-.24408-.0505-.32252-.14598-.3638-.44269-1.01113-.95053-2.02976-.8531-1.19924.11441-2.08982-.22741-2.62583-.53427-.18614-.10657-.240563-.32809-.12163-.49481.11894-.16676.36638-.21545.55248-.10893.42815.24504 1.14181.51804 2.11027.42548 1.46988-.13977 2.35938.65471 2.75885 1.14093.13094.15934.09283.38365-.08513.50093-.0714.04703-.1544.06975-.23673.06975z" fill="#ffd064"/><path d="m2.02155 6.27123c-.07141 0-.14359-.01706-.20893-.053-.18832-.10351-.24719-.32411-.13162-.49277.51276-.74815 1.45243-1.26234 2.71748-1.48698.92237-.16374 1.6963-.1189 1.72872-.11686.22042.01354.38683.18452.37171.38193-.01512.19728-.20649.34521-.42598.33297-.02775-.00167-2.74404-.14589-3.71011 1.26378-.0755.11023-.20686.17093-.34127.17093z" fill="#ffd064"/><path d="m8.05098 20c6.56972 0 10.20232-8.6307-.17221-15.29658-.25806-.16584-.41133-.43281-.40786-.71727.00285-.23507.08601-.46327.23653-.65586.48568-.62118 1.18479-1.68379 1.60403-2.539663.1004-.204972-.04328-.425433-.31186-.425433-.62315.000046-.62315-.365194-1.2463-.365194s-.62315.36524-1.24635.36524c-.53104 0-.74892-.4092024-1.00709-.111575-.75296.867935 1.82601 3.920115 1.82601 3.920115-11.38986 6.70612-7.717389 15.82622-.99264 15.82622z" fill="#eabc6b"/><path d="m10.6336 4.17373s2.6173-3.0423 1.8647-3.915011c-.2565-.2974411-.4752.106521-1.0057.106521-.6233-.000046-.6233-.36524-1.2465-.36524-.62323 0-.62323.365194-1.24643.365194-.0307 0-.05871-.001531-.08652-.003246-.2504.961332-1.3788 2.458972-2.02453 3.260862.25429.33422.43737.55088.43737.55088-.15191.08945-.30062.17942-.44721.26971 10.88232 6.6991 7.24102 15.5565.58562 15.5565h4.2022c6.7451.0001 10.3949-9.0977-1.033-15.82617z" fill="#e8ae4d"/><path d="m11.12 5.25576c-1.52082.344-3.02327.344-4.5443 0-.52938-.11974-.82949-.6529-.639-1.13755.00213-.00543.00425-.01085.00637-.01628.15974-.40632.61274-.63434 1.05674-.5345 1.24527.28 2.45036.2801 3.69599 0 .444-.09984.897.12818 1.0567.5345.0022.00543.0043.01085.0064.01628.1905.48465-.1096 1.01781-.6389 1.13755z" fill="#ffe07d"/><path d="m9.86061 11.1032c-.18319-.0581-.35178-.1135-.50733-.1671v-2.28436c.47315.07026.75722.28947.77802.30602.1625.13235.414.12261.5631-.02221.1498-.14548.1396-.37206-.0228-.50626-.0282-.02333-.5181-.41862-1.31837-.50117v-.50941c0-.19788-.17905-.35829-.40004-.35829s-.40004.16037-.40004.35829v.53845c-.09646.01655-.19525.0376-.29679.06496-.6786.18304-1.18582.70419-1.32381 1.35996-.1252.59507.08543 1.16732.54978 1.49352.26655.1873.60218.3587 1.07082.542v2.8335c-.46294-.0173-.74726-.0954-1.24417-.3865-.1849-.1083-.43277-.0619-.55372.1037-.12095.1655-.06912.3876.11578.4959.65302.3826 1.08956.4824 1.68211.5031v.5687c0 .1979.17905.3583.40004.3583s.40004-.1604.40004-.3583v-.5939c1.12297-.1632 1.77827-.9773 1.92077-1.7367.1782-.9489-.3767-1.774-1.41339-2.1022zm-1.88452-.7914c-.2284-.1604-.32693-.46584-.25724-.79704.06457-.30714.30037-.68031.76834-.80653.02226-.00603.04417-.01123.06607-.01647v1.93534c-.23958-.1071-.42743-.2101-.57717-.3153zm2.50901 2.7747c-.0883.4702-.4736.9721-1.13182 1.1232v-2.5086c.07783.0255.15736.0513.24062.0776.9955.3152.9338 1.0807.8912 1.3078z" fill="#fff"/></svg>