<svg fill="none" height="30" viewBox="0 0 30 30" width="30" xmlns="http://www.w3.org/2000/svg"><path d="m25.6067 4.3935c-5.858-5.858-15.3555-5.858-21.2132 0-5.858 5.8577-5.858 15.3552 0 21.2132 5.8577 5.8577 15.3552 5.8577 21.2132 0 5.8577-5.858 5.8577-15.3555 0-21.2132zm-3.51 11.1019-6.4547 6.4547c-.1308.1319-.3096.2049-.4955.2025-.1851-.0008-.3626-.0733-.4953-.2025-.1306-.1303-.2042-.3072-.2042-.4918 0-.1845.0736-.3617.2042-.492l5.2684-5.2684h-13.99093c-.38543 0-.69781-.3124-.69781-.6978s.31238-.6978.69781-.6978h13.99093l-5.2684-5.26841c-.2718-.27176-.2718-.71225 0-.98401.2718-.27149.7123-.27149.9837 0l6.4547 6.45472c.2671.2753.2704.7119.0071.9908z" fill="#d1ff85"/></svg>