<svg fill="none" height="30" viewBox="0 0 32 30" width="32" xmlns="http://www.w3.org/2000/svg"><path d="m32 6.27154v.93748c0 .09722-.0367.17707-.1102.23957-.0734.06944-.1615.10764-.2643.11458h-.1432v.42707c.0453.0114.082.0357.1101.07292.0367.05555.0404.1111.011.16666l-.2313.48957c.0568.02596.1082.06068.1542.10416.0955.09028.1396.19444.1322.31249l-.1652 5.93736c0 .1666-.0624.309-.1873.427-.1248.1111-.2717.1667-.4406.1667h-.4406v4.3957c.9106.2569 1.3843.4583 1.421.6042.0294.0972-.0918.2187-.3635.3645-.1763.0903-.5288.2674-1.0575.5313v.5416c1.0428.2917 1.5128.5243 1.41.6979-.0221.0347-.4921.3021-1.41.8021v.5416c1.0428.2917 1.5128.5243 1.41.6979-.0221.0347-.4921.2986-1.41.7916v.5521c1.0428.2917 1.5128.5243 1.41.6979-.0221.0347-.4921.2986-1.41.7917v.3229l1.399.3333-1.7846 1.5833-1.7735-1.5937 1.3439-.3125h-.011c-1.3879-.3542-1.7955-.7465-1.2227-1.1771.1836-.1319.4516-.2604.8041-.3854l.4737-.1458v-.3229l-.0551-.0104c-1.3879-.3542-1.7955-.7465-1.2227-1.1771.1836-.1319.4516-.2604.8041-.3854l.4737-.1458v-.3229l-.0551-.0104c-1.3879-.3542-1.7955-.7465-1.2227-1.1771.1836-.1319.4516-.2604.8041-.3854l.4737-.1458v-.3229l-.0551-.0104c-1.3879-.3542-1.7955-.7465-1.2227-1.1771.1836-.1319.4516-.2604.8041-.3854l.4737-.1458v-.3125l-.0551-.0208c-1.0061-.257-1.4907-.5382-1.454-.8438.022-.2083.279-.4132.7711-.6145l.738-.25v-2.4687h-.5287c-.1689 0-.3158-.0556-.4407-.1667-.1248-.118-.1872-.2604-.1872-.427v-.2084c-.2659.0997-.5046.3149-.716.6459-.213.3124-.47.4687-.7711.4687-.1102 0-.2093-.0208-.2974-.0625-.235-.1111-.3856-.3194-.4517-.625-.0734-.3472-.0183-.7465.1653-1.1979.1175-.2916.7527-1.9305 1.9056-4.9165v-.04166c-.0073-.11805.0331-.22221.1212-.31249.0899-.07845.1927-.12011.3084-.125-.1014-.00518-.1896-.0399-.2643-.10416-.0685-.07126-.1052-.15459-.1102-.24999l-9.6496-3.86447-3.0512 5.45817c-.1543.2569-.2607.559-.3195.9062l-.6169 4.2291c.0043.0038.008.0073.0111.0104.0954.1041.1395.2222.1321.3541l-.1542 2.0833c.1705.5622.3173 1.1699.4406 1.8229.3672 1.9582.1726 3.2117-.5838 3.7603h-.033c.1248.243.1138.4791-.0331.7083-.1468.2291-.3635.3437-.6499.3437h-.2093v.5208h.8262l.033-.1666h.3195l.033.1666h1.0355l.033-.1666h.3195l.033.1666h.4186c.1542 0 .3231.0174.5067.0521l.0661-.1458.3085.0625v.1771c.235.0764.4442.1736.6278.2916l.1873-.125.2203.2084-.0991.1458c.1762.1528.3341.3298.4736.5312l.1653-.0416.1432.2708-.1322.0937c.1101.2153.1799.434.2093.6563l.2313.0416v.3021l-.1983.0313v.0104c0 .2083-.0294.4236-.0881.6458l.1542.0833-.0991.2813-.1763-.0209c-.1028.2222-.224.4201-.3635.5938l.1432.2083-.2203.2083-.1983-.125c-.235.1944-.481.3472-.738.4583l.0441.1667-.2975.1042-.0991-.1459c-.257.0764-.5141.1146-.7711.1146h-.4186l-.033.1875h-.3195l-.033-.1875h-1.0355l-.033.1875h-.3195l-.033-.1875h-1.0355l-.033.1875h-.3195l-.033-.1875h-1.0355l-.033.1875h-.3195l-.044-.1875h-1.0245l-.044.1875h-.3085l-.044-.1875h-1.02447l-.04406.1875h-.30843l-.04406-.1875h-1.02444l-.04407.1875h-.30843l-.04406-.1875h-1.02444l-.04406.1875h-.30844l-.04406-.1875h-1.02444l-.04406.1875h-.30844l-.04406-.1875h-1.02444l-.04406.1875h-.31945l-.03305-.1875h-.20929c-.2654 0-.52611-.0382-.7821-.1146l-.09914.1459-.29742-.1042.04406-.1667c-.27171-.1111-.51405-.2639-.72702-.4583l-.187263.125-.22031-.2083.132187-.1979c-.139528-.1736-.264374-.3785-.374529-.6146v.0104l-.176245.0209-.099142-.2813.154219-.0833c-.051405-.1945-.077109-.4097-.077109-.6458v-.0104l-.198278-.0313v-.3021l.22031-.0416c.044062-.2431.113829-.4618.209297-.6563l-.132186-.0937.143199-.2708.165232.052c.117499-.1875.279062-.3715.484688-.552l-.099146-.1354.220306-.2084.18727.125c.20562-.1274.41124-.228.61686-.302v-.1667l.30844-.0625.06609.1458c.18359-.0347.35617-.0521.51773-.0521h.20929l.03305-.1666h.31945l.03304.1666h1.03546l.04406-.1666h.30844l.03304.1666h1.04648l.03304-.1666h.30844l.03304.1666h.09914v-.5208h-4.69259c-.27172 0-.50305-.0937-.69398-.2812-.198285-.1806-.297417-.3993-.297417-.6562v-3.7499c0-.257.095464-.4757.286397-.6563.18359-.1805.41125-.2743.68296-.2812l5.71704-.1875v-2.427c0-.2431.0918-.4514.27539-.625.17625-.1667.39288-.25.64991-.25 1.22639-.1041 2.22143-.1666 2.98523-.1875.2053-.005.3999-.005.5838 0l.716-4.6769c.0294-.22918.0991-.46181.2093-.69792l.2313-1.48954.5618.01042 1.3439-3.36448c.0147-.04861.0477-.0868.0991-.11458.0073-.00293.0146-.00641.0221-.01042l1.3549-3.30199c-.0588-.06228-.0881-.13519-.0881-.218739v-.21874c0-.138885.0697-.243049.2092-.312491l.9253-.4374884c.0946-.0371082.1827-.02669314.2644.0312478l1.0134.6978976 2.7099.697893c.0954.02778.1578.08333.1872.16666.0294.09028.0147.17014-.044.23958l4.8027 2.74992c.0881.04861.1432.11805.1652.20833.0109.04435.0145.08601.0111.12499l.4957.28124c.006-.00461.0133-.00808.022-.01041.0113-.00133.0223-.00133.033 0h.011c.07-.01172.1397.00217.2093.04166.0367.02309.066.05086.0882.08333l.9032.46874c.0117-.14401.0742-.27248.1873-.38541.1395-.13194.3048-.19791.4957-.19791h1.8065c.3085 0 .5692.10416.7821.31249.2203.20833.3305.45485.3305.73956zm-5.5408-1.09371c-.0315.01771-.0645.0316-.0991.04166-.0955.02083-.18.00695-.2534-.04166l-4.7917-2.66659 5.9814 4.16654-.3305-1.11455c-.0138-.03588-.0174-.0706-.011-.10416zm1.9277 1.1458-.738-.42708.3194 1.23955.4186.30208zm2.3573 1.23954-.5728.01042c-.3902 0-.6913.13888-.9032.41665h1.476zm-2.2692 6.79143.0111.1042-.1212-3.9061c-.6316 1.6666-1.1126 2.9061-1.443 3.7186-.1249.3125-.1763.5868-.1543.8229.0221.2014.0845.3264.1873.375.1028.0555.2277-.0208.3745-.2292.3452-.5069.7271-.802 1.1456-.8854zm-11.1256-13.02041h-.5838c-.0184 0-.0368-.00347-.0551-.01041l-1.3219 3.28115c.0147.02731.0221.05856.0221.09374l-.011.07292-1.0575 2.83325 3.2826-3.7603c-.0205-.01897-.0388-.0398-.0551-.06251-.1469-.20832-.2203-.44096-.2203-.69789z" fill="#aab9de" fill-opacity=".6"/></svg>