<svg fill="none" height="24" viewBox="0 0 24 24" width="24" xmlns="http://www.w3.org/2000/svg"><path d="m1.71429 12.7341c-.08572.0864-.18572.1727-.3.2591-.942861.9788-1.41429 2.1591-1.41429 3.5409s.471429 2.5477 1.41429 3.4977c.97142.9788 2.14285 1.4682 3.51428 1.4682s2.52857-.4894 3.47143-1.4682c.8-.7773 1.27143-1.6841 1.41429-2.7204v-.0432c.02857-.2303.04285-.475.04285-.7341 0-1.3818-.48571-2.5621-1.45714-3.5409-.94286-.9788-2.1-1.4682-3.47143-1.4682-1.22857 0-2.3.403-3.21428 1.2091zm3.21428 1.2954c.68572 0 1.27143.2447 1.75714.7341.48572.4894.72858 1.0796.72858 1.7705 0 .1151-.01429.2447-.04286.3886-.08572.5182-.31429.9788-.68572 1.3818-.48571.4607-1.07142.691-1.75714.691-.68571 0-1.27143-.2303-1.75714-.691-.48572-.4893-.72857-1.0795-.72857-1.7704s.24285-1.2811.72857-1.7705c.05714-.0575.11428-.1007.17143-.1295.45714-.403.98571-.6046 1.58571-.6046zm18.68573 3.8864c0-.9788-.3572-1.828-1.0714-2.5477-.6858-.6909-1.5143-1.0364-2.4858-1.0364-.9714 0-1.8.3455-2.4857 1.0364-.7143.7197-1.0714 1.5689-1.0714 2.5477s.3571 1.8136 1.0714 2.5046c.6857.7197 1.5143 1.0795 2.4857 1.0795.9715 0 1.8-.3598 2.4858-1.0795.7142-.691 1.0714-1.5258 1.0714-2.5046zm-4.8-1.2523c.3428-.3454.7571-.5181 1.2428-.5181.4858 0 .9.1727 1.2429.5181.3429.3455.5143.7629.5143 1.2523s-.1714.9068-.5143 1.2523c-.3429.3454-.7571.5182-1.2429.5182-.4857 0-.9-.1728-1.2428-.5182-.3429-.3455-.5143-.7629-.5143-1.2523s.1714-.9068.5143-1.2523zm5.0571-3.5841h-.2143v-.1295c0-.8924-.2-1.6265-.6-2.2023-.6857-.92118-2.2714-1.51134-4.7571-1.77043l-1.1143-.08636v-2.28864c0-.11515-.0428-.21591-.1286-.30227-.0571-.05758-.1428-.08636-.2571-.08636h-.2143c-.1143 0-.2.02878-.2571.08636-.0857.08636-.1286.18712-.1286.30227v2.20228l-2.0143-.21591-.7286-4.96591h.2572c.1143 0 .2143-.02879.3-.08637.0571-.08636.0857-.18712.0857-.30227v-.38864c0-.08636-.0286-.17272-.0857-.25909-.0857-.05757-.1857-.08636-.3-.08636h-8.48573c-.11428 0-.2.02879-.25714.08636-.08572.08637-.12857.17273-.12857.25909v.38864c0 .11515.04285.21591.12857.30227.05714.05758.14286.08637.25714.08637h.21429l-.77143 5.26818c-.48572.02879-.95714.10076-1.41429.21591-.14285.02879-.28571.07197-.42857.12954v-.08636c0-.05758-.02857-.08636-.08571-.08636h-.94286c-.08571 0-.12857.02878-.12857.08636v.56136c-.17143.11516-.35714.23031-.55714.34544v1.2955c1.08571-.95 2.35714-1.42503 3.81428-1.42503 1.62857 0 3.01429.59013 4.15714 1.77043 1.14289 1.1515 1.71429 2.5478 1.71429 4.1887 0 .3166-.0143.6189-.0429.9068h4.9286c.1429-.95.5572-1.7705 1.2429-2.4614.8571-.8636 1.9-1.2954 3.1285-1.2954 1.2286 0 2.2715.4318 3.1286 1.2954.1714.1727.3286.3599.4714.5614v-.7341h.2143c.0857 0 .1286-.0432.1286-.1296v-.8636c-.0286-.0576-.0714-.0864-.1286-.0864zm-14.69997-9.45677h3.59997l.9857 7.94547h-2.5714l-.4714-1.1659c-.1143-.2879-.2714-.5326-.4714-.73412-.31433-.25909-.67147-.40303-1.07147-.43182zm-3.04286 0h2.35714v5.52727l-3.12857-.21591z" fill="#000" fill-opacity=".7"/></svg>