<svg width="40" height="40" viewBox="0 0 40 40" fill="none" xmlns="http://www.w3.org/2000/svg">
<path d="M19.9796 40C17.2316 40 14.4835 38.961 12.3868 36.8627L3.14504 27.614C-1.04835 23.4174 -1.04835 16.6132 3.14504 12.4166L12.4071 3.14744C16.6005 -1.04915 23.3995 -1.04915 27.5929 3.14744L36.855 12.4166C41.0483 16.6132 41.0483 23.4174 36.855 27.614L27.5725 36.8627C25.4758 38.961 22.7277 40 19.9796 40ZM14.2799 34.9682C17.4351 38.1054 22.5445 38.1054 25.6794 34.9682L34.9415 25.699C38.0967 22.5414 38.0967 17.4281 34.9415 14.2908L25.6794 5.02165C24.1527 3.49376 22.1374 2.65852 19.9796 2.65852C17.8219 2.65852 15.8066 3.49376 14.2799 5.02165L5.01781 14.2908C3.4911 15.8187 2.65649 17.8355 2.65649 19.9949C2.65649 22.1543 3.4911 24.1711 5.01781 25.699L14.2799 34.9682Z" fill="white"/>
<path fill-rule="evenodd" clip-rule="evenodd" d="M23.4324 28.5716C22.3714 28.9968 21.213 29.2308 20.0001 29.2308C14.902 29.2308 10.7693 25.098 10.7693 20C10.7693 14.902 14.902 10.7692 20.0001 10.7692C25.0981 10.7692 29.2308 14.902 29.2308 20C29.2308 21.213 28.9969 22.3713 28.5716 23.4323C28.0203 22.6399 27.1665 22.0737 26.1774 21.9012C26.3621 21.3001 26.4616 20.6617 26.4616 20C26.4616 16.4314 23.5687 13.5385 20.0001 13.5385C16.4314 13.5385 13.5385 16.4314 13.5385 20C13.5385 23.5686 16.4314 26.4615 20.0001 26.4615C20.6617 26.4615 21.3002 26.3621 21.9013 26.1773C22.0738 27.1664 22.6399 28.0203 23.4324 28.5716Z" fill="white"/>
<circle cx="25.5385" cy="25.5385" r="2.69231" stroke="white" stroke-width="2"/>
</svg>
