<svg fill="none" height="20" viewBox="0 0 22 20" width="22" xmlns="http://www.w3.org/2000/svg"><g fill="#e86744" stroke="#e86744" stroke-width=".5"><path d="m11.1539 17.25h-7.61545c-.35821 0-.59614-.2515-.59614-.5v-13.49998c0-.24843.23796-.49998.59614-.49998h7.61545c.5768 0 1.0961-.41968 1.0961-.99999 0-.58028-.5193-1.00005-1.0961-1.00005h-7.61545c-1.50841 0-2.78845 1.09397-2.78845 2.50002v13.49998c0 1.4061 1.28004 2.5 2.78845 2.5h7.61545c.5768 0 1.0961-.4197 1.0961-1s-.5193-1-1.0961-1z"/><path d="m20.9284 9.22905.0002.00025c.2057.2042.3214.48045.3214.77066 0 .29044-.1167.56754-.3214.77074l-.0002.0002-5.0496 4.9998zm0 0-5.0496-4.99975zm-6.5782 6.53155-.0004-.0005c-.4175-.4253-.4146-1.1107.011-1.5313l3.1767-3.1454h-9.06245c-.59817 0-1.08055-.4853-1.08055-1.0834 0-.59811.48239-1.08332 1.08055-1.08332h9.06245l-3.1767-3.14547c0-.00002 0-.00004 0-.00006l-.0002-.00014.1759-.17764zm0 0c.2112.214.4902.3227.7694.3227m-.7694-.3227.7694.3227m0 0c.274 0 .549-.104.7589-.3123z"/></g></svg>