<svg width="32" height="32" viewBox="0 0 32 32" fill="none" xmlns="http://www.w3.org/2000/svg">
<g filter="url(#filter0_d_86_130)">
<path d="M10.1049 8.48129L8.02566 8.64193C7.44709 8.68665 6.93179 8.98988 6.61182 9.47386L4.21385 13.1007C3.97118 13.4677 3.93261 13.927 4.11059 14.3294C4.28862 14.7318 4.65448 15.0122 5.08924 15.0795L6.99306 15.3744C7.43841 13.0109 8.50453 10.6533 10.1049 8.48129Z" fill="white"/>
<path d="M14.6255 23.007L14.9204 24.9108C14.9877 25.3456 15.2681 25.7115 15.6705 25.8894C15.8379 25.9635 16.015 26.0001 16.1913 26.0001C16.439 26.0001 16.6849 25.9279 16.8992 25.7862L20.5261 23.3882C21.0101 23.0682 21.3133 22.5529 21.358 21.9744L21.5186 19.8951C19.3465 21.4956 16.989 22.5617 14.6255 23.007Z" fill="white"/>
<path d="M13.91 21.6873C13.9761 21.6873 14.0425 21.6819 14.1089 21.6708C15.099 21.5053 16.0534 21.2264 16.9638 20.8613L9.13902 13.0365C8.77396 13.9469 8.49505 14.9012 8.32949 15.8915C8.26424 16.2818 8.39516 16.6794 8.67496 16.9593L13.0411 21.3254C13.2734 21.5576 13.5869 21.6873 13.91 21.6873Z" fill="white"/>
<path fill-rule="evenodd" clip-rule="evenodd" d="M6.36452 19.7908C7.40258 18.7364 9.13277 18.7364 10.1708 19.7908C11.2666 20.8451 11.2666 22.5439 10.2285 23.5983C8.94747 24.9515 5.48106 25.7498 4.6027 25.9521C4.49248 25.9775 4.42302 25.9935 4.40373 26H4.40372C4.28839 26 4.17302 26 4.05769 25.9414C4 25.8828 4 25.8242 4 25.7071C4.00631 25.6878 4.02229 25.6195 4.04762 25.5112C4.25387 24.6293 5.08047 21.095 6.36452 19.7908ZM8.09466 19.8494C8.61372 19.3222 9.47876 19.3222 9.99782 19.8494C10.5169 20.3766 10.5169 21.2553 9.99782 21.7824C9.30574 22.4854 7.22957 22.954 7.11424 22.954C7.0566 22.954 7.0566 22.954 6.99891 22.8954C6.94122 22.8954 6.94122 22.8368 6.94122 22.7783C6.94122 22.7197 7.34495 20.6109 8.09466 19.8494Z" fill="white"/>
<path d="M26.0865 12.6407C28.0013 8.93882 28.0723 5.02684 27.9722 3.19217C27.9379 2.56353 27.4367 2.06234 26.808 2.02808C26.5093 2.01177 26.1553 2 25.7562 2C23.7047 2 20.4586 2.31073 17.3595 3.91371C14.8966 5.18762 11.6671 7.99265 9.76172 11.679C9.78422 11.6966 9.8062 11.7152 9.82692 11.7359L18.2644 20.1734C18.2851 20.1941 18.3037 20.216 18.3213 20.2385C22.0076 18.3331 24.8126 15.1036 26.0865 12.6407ZM17.9547 7.07372C19.3254 5.70306 21.5557 5.70292 22.9265 7.07372C23.5905 7.7377 23.9562 8.62059 23.9562 9.55963C23.9562 10.4987 23.5905 11.3816 22.9265 12.0455C22.2412 12.7308 21.3408 13.0735 20.4406 13.0736C19.5402 13.0736 18.6402 12.731 17.9547 12.0455C17.2907 11.3816 16.925 10.4987 16.925 9.55963C16.925 8.62059 17.2907 7.7377 17.9547 7.07372Z" fill="white"/>
<path d="M18.9489 11.0512C19.7713 11.8736 21.1096 11.8737 21.932 11.0512C22.3304 10.6528 22.5498 10.1231 22.5498 9.55964C22.5498 8.9962 22.3304 8.46651 21.932 8.06812C21.5208 7.65689 20.9806 7.45129 20.4404 7.45129C19.9003 7.45129 19.3601 7.65689 18.9489 8.06812C18.5505 8.46651 18.3311 8.9962 18.3311 9.55964C18.3311 10.1231 18.5505 10.6528 18.9489 11.0512Z" fill="white"/>
</g>
<defs>
<filter id="filter0_d_86_130" x="0" y="0" width="32.0002" height="32.0001" filterUnits="userSpaceOnUse" color-interpolation-filters="sRGB">
<feFlood flood-opacity="0" result="BackgroundImageFix"/>
<feColorMatrix in="SourceAlpha" type="matrix" values="0 0 0 0 0 0 0 0 0 0 0 0 0 0 0 0 0 0 127 0" result="hardAlpha"/>
<feOffset dy="2"/>
<feGaussianBlur stdDeviation="2"/>
<feComposite in2="hardAlpha" operator="out"/>
<feColorMatrix type="matrix" values="0 0 0 0 0 0 0 0 0 0 0 0 0 0 0 0 0 0 0.25 0"/>
<feBlend mode="normal" in2="BackgroundImageFix" result="effect1_dropShadow_86_130"/>
<feBlend mode="normal" in="SourceGraphic" in2="effect1_dropShadow_86_130" result="shape"/>
</filter>
</defs>
</svg>
