<svg width="234" height="200" viewBox="0 0 234 200" fill="none" xmlns="http://www.w3.org/2000/svg">
<path d="M141.206 94.1167H198.404C203.564 94.1167 208.513 96.1093 212.162 99.6561C215.811 103.203 217.861 108.013 217.861 113.029V164.705H141.206V94.1167Z" fill="#D32B39"/>
<path d="M209.793 149.02H225.931C228.071 149.02 230.123 149.846 231.637 151.317C233.15 152.788 234 154.783 234 156.863C234 158.943 233.15 160.938 231.637 162.409C230.123 163.879 228.071 164.706 225.931 164.706H217.862L209.793 149.02Z" fill="#A8A8A8"/>
<path d="M165.415 78.4311C164.345 78.4311 163.319 78.0179 162.562 77.2825C161.806 76.5471 161.381 75.5496 161.381 74.5095V50.9802C161.381 50.3346 161.545 49.699 161.858 49.1299C162.171 48.5607 162.624 48.0755 163.177 47.7174L175.28 39.8743C176.171 39.3039 177.257 39.0993 178.302 39.3052C179.347 39.5111 180.266 40.1108 180.857 40.9731C181.449 41.8354 181.665 42.8903 181.459 43.9072C181.253 44.9241 180.641 45.8202 179.757 46.3998L169.45 53.0787V74.5095C169.45 75.5496 169.025 76.5471 168.268 77.2825C167.511 78.0179 166.485 78.4311 165.415 78.4311Z" fill="#EAEAE8"/>
<path d="M41.6904 117.647L28.2419 98.0396H80.6901L117 164.706H94.8108L41.6904 117.647Z" fill="#961B20"/>
<path d="M19.6846 82.235L19.5349 82.8532L20.171 82.8526L88.3435 82.7926L132.696 164.943L133.636 164.705V94.6173H141.205H141.882L141.682 93.9698L117.476 15.5386L117.367 15.186H116.998H36.3084H35.915L35.8225 15.5684L19.6846 82.235Z" fill="#EAEAE8" fill-opacity="0.2" stroke="white"/>
<path d="M157.345 74.5103H173.483V164.706H157.345V74.5103Z" fill="#A8A8A8"/>
<path d="M46.3369 199.999C71.9281 199.999 92.6739 179.834 92.6739 154.959C92.6739 130.084 71.9281 109.919 46.3369 109.919C20.7458 109.919 0 130.084 0 154.959C0 179.834 20.7458 199.999 46.3369 199.999Z" fill="#68737F"/>
<path d="M14.7258 154.299L2.62242 162.142C2.04817 162.516 1.38489 162.741 0.695957 162.794C0.231015 160.208 -0.00184291 157.587 1.09826e-05 154.961C1.09826e-05 154.78 1.10979e-05 154.593 0.00505419 154.412L10.2526 147.775C11.1428 147.229 12.2169 147.044 13.2459 147.257C14.2748 147.471 15.1773 148.067 15.7608 148.918C16.3442 149.769 16.5626 150.808 16.3693 151.813C16.1759 152.818 15.5862 153.71 14.7258 154.299Z" fill="#4F5761"/>
<path d="M23.5046 176.22L20.6503 190.083C20.5174 190.741 20.2116 191.354 19.7627 191.862C17.3985 190.249 15.1936 188.426 13.1764 186.416L15.592 174.681C15.802 173.661 16.4202 172.764 17.3107 172.187C17.7516 171.902 18.246 171.703 18.7658 171.603C19.2856 171.503 19.8206 171.504 20.3401 171.605C20.8597 171.706 21.3536 171.906 21.7938 172.192C22.2341 172.479 22.6119 172.847 22.9057 173.276C23.1996 173.704 23.4037 174.185 23.5065 174.69C23.6092 175.195 23.6086 175.715 23.5046 176.22Z" fill="#4F5761"/>
<path d="M29.2115 129.691C29.0287 130.578 28.5356 131.377 27.8159 131.952C27.0961 132.526 26.1941 132.841 25.2627 132.843C24.9954 132.842 24.7286 132.818 24.4659 132.769L10.2041 129.995C9.52779 129.865 8.89736 129.567 8.37341 129.132C10.0318 126.833 11.9076 124.69 13.9763 122.73L26.0495 125.078C26.5688 125.179 27.0627 125.378 27.5028 125.664C27.9429 125.951 28.3206 126.319 28.6143 126.747C28.908 127.176 29.1119 127.656 29.2143 128.161C29.3168 128.666 29.3158 129.186 29.2115 129.691Z" fill="#4F5761"/>
<path d="M54.3934 199.323C51.7323 199.775 49.0359 200.001 46.3345 199.999C46.1479 199.999 45.9613 199.999 45.7747 199.994L38.9464 190.033C38.6364 189.605 38.4177 189.121 38.3032 188.61C38.1887 188.099 38.1807 187.57 38.2796 187.055C38.3786 186.541 38.5825 186.051 38.8793 185.614C39.1762 185.178 39.56 184.803 40.0081 184.513C40.4562 184.222 40.9595 184.022 41.4884 183.924C42.0174 183.826 42.5612 183.832 43.0878 183.941C43.6144 184.05 44.1132 184.261 44.5547 184.56C44.9963 184.86 45.3717 185.243 45.6587 185.685L53.7277 197.45C54.1129 198.008 54.3423 198.653 54.3934 199.323Z" fill="#4F5761"/>
<path d="M52.6078 125.323C51.7176 125.899 50.6284 126.108 49.5797 125.904C48.5309 125.7 47.6084 125.1 47.015 124.235L38.9461 112.47C38.5609 111.912 38.3315 111.267 38.2804 110.597C40.9397 110.145 43.6345 109.919 46.3342 109.921C46.5208 109.921 46.7124 109.921 46.899 109.926L53.7274 119.882C54.0217 120.31 54.2262 120.791 54.3293 121.297C54.4323 121.802 54.4318 122.322 54.3278 122.828C54.2239 123.333 54.0184 123.814 53.7233 124.242C53.4282 124.67 53.0491 125.037 52.6078 125.323Z" fill="#4F5761"/>
<path d="M79.4945 123.504L77.0789 135.235C76.8971 136.123 76.4045 136.923 75.6846 137.499C74.9648 138.074 74.0622 138.39 73.1301 138.391C72.8625 138.392 72.5955 138.366 72.3333 138.313C71.2847 138.108 70.3623 137.508 69.7686 136.643C69.1749 135.778 68.9582 134.72 69.1662 133.7L72.0206 119.833C72.1546 119.177 72.4603 118.566 72.9082 118.058C75.2757 119.667 77.481 121.491 79.4945 123.504Z" fill="#4F5761"/>
<path d="M84.3008 180.788C82.6442 183.089 80.7682 185.232 78.6979 187.19L66.6298 184.842C65.5897 184.63 64.6779 184.027 64.0924 183.165C63.507 182.302 63.2952 181.251 63.5031 180.237C63.7111 179.224 64.3219 178.332 65.2029 177.754C66.0839 177.176 67.1639 176.959 68.2083 177.151L82.4752 179.926C83.1514 180.052 83.7812 180.349 84.3008 180.788Z" fill="#4F5761"/>
<path d="M92.674 154.96C92.674 155.142 92.674 155.323 92.6689 155.504L82.4264 162.142C81.5363 162.719 80.4467 162.929 79.3974 162.725C78.3481 162.522 77.425 161.921 76.8311 161.056C76.2373 160.191 76.0213 159.132 76.2308 158.112C76.4403 157.092 77.058 156.194 77.9481 155.617L90.0516 147.774C90.6254 147.401 91.2894 147.18 91.978 147.132C92.443 149.717 92.6758 152.336 92.674 154.96Z" fill="#4F5761"/>
<path d="M46.337 176.586C58.6249 176.586 68.5861 166.903 68.5861 154.959C68.5861 143.016 58.6249 133.333 46.337 133.333C34.0492 133.333 24.0879 143.016 24.0879 154.959C24.0879 166.903 34.0492 176.586 46.337 176.586Z" fill="#EAEAE8"/>
<path d="M46.3376 172.549C56.3315 172.549 64.4332 164.674 64.4332 154.959C64.4332 145.245 56.3315 137.37 46.3376 137.37C36.3436 137.37 28.2419 145.245 28.2419 154.959C28.2419 164.674 36.3436 172.549 46.3376 172.549Z" fill="#EAEAE8"/>
<path d="M186.051 200C204.134 200 218.793 185.751 218.793 168.175C218.793 150.598 204.134 136.349 186.051 136.349C167.968 136.349 153.309 150.598 153.309 168.175C153.309 185.751 167.968 200 186.051 200Z" fill="#68737F"/>
<path d="M163.234 170.304L156.118 175.118C155.577 175.481 154.955 175.711 154.303 175.79C153.64 173.235 153.306 170.61 153.309 167.976C153.309 167.804 153.309 167.628 153.314 167.456L158.625 163.868C159.059 163.564 159.551 163.347 160.072 163.23C160.594 163.113 161.134 163.098 161.662 163.186C162.189 163.273 162.693 163.462 163.145 163.741C163.597 164.02 163.987 164.384 164.293 164.81C164.598 165.237 164.814 165.719 164.926 166.228C165.038 166.736 165.045 167.262 164.947 167.773C164.848 168.284 164.646 168.771 164.352 169.206C164.058 169.641 163.678 170.014 163.234 170.304Z" fill="#4F5761"/>
<path d="M171.61 185.304L170.077 193.598C169.961 194.224 169.691 194.812 169.29 195.314C166.81 193.876 164.536 192.125 162.527 190.108L163.667 183.922C163.76 183.415 163.956 182.931 164.241 182.497C164.527 182.064 164.898 181.689 165.333 181.395C165.768 181.1 166.258 180.892 166.776 180.782C167.293 180.672 167.828 180.662 168.349 180.753C168.871 180.844 169.369 181.033 169.815 181.311C170.261 181.589 170.647 181.95 170.949 182.372C171.252 182.795 171.466 183.271 171.58 183.774C171.693 184.277 171.703 184.797 171.61 185.304Z" fill="#4F5761"/>
<path d="M172.907 150.771C172.739 151.675 172.25 152.494 171.525 153.085C170.8 153.675 169.884 153.999 168.938 154.001C168.698 154.001 168.458 153.98 168.222 153.937L159.689 152.452C159.045 152.34 158.439 152.076 157.924 151.682C159.404 149.272 161.205 147.061 163.28 145.109L169.65 146.222C170.171 146.312 170.669 146.502 171.115 146.779C171.561 147.057 171.946 147.417 172.248 147.84C172.551 148.262 172.765 148.739 172.878 149.241C172.991 149.744 173.001 150.264 172.907 150.771Z" fill="#4F5761"/>
<path d="M189.27 146.976C188.391 147.569 187.306 147.799 186.253 147.616C185.199 147.432 184.264 146.849 183.652 145.996L178.705 139.079C178.29 138.5 178.042 137.823 177.989 137.119C180.624 136.473 183.33 136.147 186.048 136.148C186.179 136.148 186.31 136.148 186.441 136.153L190.279 141.516C190.888 142.37 191.125 143.425 190.936 144.449C190.746 145.472 190.148 146.381 189.27 146.976Z" fill="#4F5761"/>
<path d="M194.086 198.835C191.458 199.479 188.757 199.803 186.047 199.801C185.87 199.801 185.694 199.801 185.517 199.796L181.821 194.634C181.518 194.211 181.304 193.734 181.191 193.231C181.078 192.728 181.068 192.208 181.162 191.701C181.255 191.193 181.451 190.709 181.737 190.276C182.023 189.842 182.394 189.467 182.829 189.173C183.265 188.879 183.755 188.671 184.273 188.561C184.791 188.451 185.326 188.441 185.847 188.532C186.369 188.623 186.867 188.814 187.313 189.092C187.759 189.37 188.145 189.731 188.447 190.154L193.395 197.07C193.77 197.595 194.007 198.201 194.086 198.835Z" fill="#4F5761"/>
<path d="M209.605 145.874L208.435 152.232C208.267 153.136 207.777 153.955 207.052 154.545C206.327 155.136 205.412 155.46 204.466 155.462C204.226 155.46 203.986 155.439 203.75 155.398C203.228 155.307 202.73 155.117 202.284 154.839C201.838 154.561 201.453 154.2 201.15 153.777C200.848 153.354 200.634 152.878 200.521 152.374C200.408 151.871 200.398 151.351 200.492 150.844L202.02 142.55C202.145 141.864 202.459 141.224 202.928 140.697C205.377 142.131 207.622 143.871 209.605 145.874Z" fill="#4F5761"/>
<path d="M214.1 184.408C212.59 186.834 210.755 189.054 208.644 191.011L202.456 189.933C201.934 189.842 201.436 189.652 200.99 189.374C200.545 189.095 200.159 188.735 199.857 188.312C199.554 187.889 199.34 187.412 199.227 186.909C199.114 186.406 199.104 185.886 199.198 185.379C199.292 184.872 199.487 184.388 199.774 183.954C200.06 183.521 200.431 183.146 200.866 182.852C201.301 182.558 201.791 182.35 202.309 182.241C202.827 182.131 203.362 182.121 203.883 182.212L212.416 183.702C213.026 183.807 213.603 184.049 214.1 184.408Z" fill="#4F5761"/>
<path d="M218.793 167.976C218.793 168.216 218.788 168.456 218.783 168.697L213.477 172.285C212.599 172.879 211.513 173.109 210.46 172.926C209.406 172.742 208.471 172.159 207.859 171.304C207.248 170.45 207.011 169.395 207.2 168.371C207.389 167.347 207.989 166.438 208.868 165.844L215.984 161.035C216.537 160.659 217.179 160.426 217.85 160.358C218.478 162.852 218.794 165.409 218.793 167.976Z" fill="#4F5761"/>
<path d="M186.053 180.392C192.995 180.392 198.623 174.922 198.623 168.174C198.623 161.427 192.995 155.957 186.053 155.957C179.111 155.957 173.484 161.427 173.484 168.174C173.484 174.922 179.111 180.392 186.053 180.392Z" fill="#EAEAE8"/>
<path d="M128.286 102.726C127.621 102.727 126.966 102.568 126.38 102.264C125.793 101.959 125.293 101.518 124.925 100.98L113.642 84.529C113.344 84.1006 113.137 83.6193 113.032 83.1128C112.926 82.6063 112.925 82.0845 113.028 81.5776C113.131 81.0706 113.336 80.5883 113.631 80.1586C113.926 79.7288 114.306 79.36 114.748 79.0733C115.19 78.7867 115.687 78.5878 116.208 78.4881C116.73 78.3885 117.267 78.3901 117.788 78.4927C118.309 78.5954 118.804 78.7971 119.244 79.0863C119.685 79.3756 120.062 79.7466 120.355 80.178L131.638 96.6295C132.043 97.2198 132.276 97.9059 132.312 98.6146C132.347 99.3233 132.184 100.028 131.84 100.654C131.496 101.28 130.984 101.803 130.358 102.168C129.732 102.533 129.016 102.726 128.286 102.727V102.726Z" fill="#A8A8A8"/>
<path d="M108.934 90.195C108.087 90.1956 107.261 89.9371 106.574 89.456C105.887 88.975 105.372 88.2959 105.104 87.5149C104.836 86.7339 104.827 85.8907 105.08 85.1048C105.332 84.3189 105.833 83.6301 106.51 83.1362L118.614 74.3126C119.038 74.0036 119.52 73.7788 120.033 73.651C120.546 73.5232 121.081 73.4949 121.605 73.5677C122.13 73.6406 122.634 73.8131 123.09 74.0755C123.546 74.3379 123.944 74.685 124.262 75.0969C124.58 75.5089 124.811 75.9778 124.943 76.4766C125.074 76.9755 125.103 77.4947 125.028 78.0045C124.953 78.5143 124.776 79.0048 124.506 79.4479C124.236 79.891 123.879 80.2781 123.455 80.5871L111.352 89.4107C110.655 89.9203 109.806 90.1956 108.934 90.195Z" fill="#CBCBCB"/>
<path fill-rule="evenodd" clip-rule="evenodd" d="M92.1994 91.0568C92.5327 91.556 92.7599 92.1258 92.881 92.766L84.3249 96.4538L75.4424 94.3089C74.5001 93.7789 73.6078 93.1191 72.7655 92.3295C70.0549 89.7995 68.6296 86.6912 68.4896 83.0047L68.0297 69.4816C67.8912 65.7991 69.0873 62.6041 71.618 59.8965C74.1441 57.1953 77.2518 55.776 80.9412 55.6384C84.6241 55.5004 87.8212 56.6972 90.5322 59.2288C93.2347 61.7559 94.66 64.8642 94.8081 68.5536L95.268 82.0767C95.3888 85.4899 94.3659 88.4833 92.1994 91.0568Z" fill="#D2E4FF"/>
<path d="M81.2741 32C84.396 32 87.0547 33.0971 89.2503 35.2914C91.4459 37.4856 92.5437 40.1384 92.5437 43.2498C92.5437 46.3697 91.4459 49.0268 89.2503 51.2211C87.0547 53.4153 84.396 54.5124 81.2741 54.5124C78.1608 54.5124 75.5064 53.4153 73.3108 51.2211C71.1152 49.0268 70.0174 46.3697 70.0174 43.2498C70.0174 40.1384 71.1152 37.4856 73.3108 35.2914C75.5064 33.0971 78.1608 32 81.2741 32Z" fill="#D2E4FF"/>
<path d="M116.523 71.1272C117.766 71.0299 118.868 71.3838 119.829 72.1889C120.784 73.0058 121.311 74.0342 121.412 75.274C121.511 76.5249 121.156 77.6267 120.349 78.5793C119.534 79.5426 118.506 80.0743 117.266 80.1745L96.0114 81.9241C95.0601 81.9986 94.1738 81.7969 93.3526 81.3189L76.8928 71.7282C75.8045 71.0906 75.1044 70.1671 74.7928 68.9577C74.472 67.7522 74.6293 66.6052 75.2649 65.5166C75.897 64.4387 76.8172 63.7401 78.0253 63.4207C79.2336 63.1085 80.3811 63.2653 81.4679 63.8912L96.6833 72.7556L116.523 71.1272Z" fill="url(#paint0_linear_1934_6281)"/>
<path d="M141.208 94.1167H128.096C125.154 94.1167 94.385 94.1167 94.385 94.1167L100.287 104.166L117.002 135.783L132.131 164.705H141.208V94.1167Z" fill="#961B20"/>
<path d="M39.338 0H113.976C115.848 0 117.644 0.723037 118.968 2.01005C120.292 3.29706 121.036 5.04263 121.036 6.86274V15.6863H32.2777V6.86274C32.2777 5.04263 33.0216 3.29706 34.3456 2.01005C35.6697 0.723037 37.4655 0 39.338 0Z" fill="#E82F3E"/>
<path d="M52.4484 15.686H68.5863V82.3526H52.4484V15.686Z" fill="#961B20"/>
<path d="M189.621 121.569C188.551 121.569 187.525 121.156 186.769 120.42C186.012 119.685 185.587 118.688 185.587 117.648V109.804C185.587 108.764 186.012 107.767 186.769 107.031C187.525 106.296 188.551 105.883 189.621 105.883C190.691 105.883 191.718 106.296 192.474 107.031C193.231 107.767 193.656 108.764 193.656 109.804V117.648C193.656 118.688 193.231 119.685 192.474 120.42C191.718 121.156 190.691 121.569 189.621 121.569Z" fill="#961B20"/>
<path d="M201.725 121.569C200.655 121.569 199.628 121.156 198.872 120.42C198.115 119.685 197.69 118.688 197.69 117.648V109.804C197.69 108.764 198.115 107.767 198.872 107.031C199.628 106.296 200.655 105.883 201.725 105.883C202.795 105.883 203.821 106.296 204.577 107.031C205.334 107.767 205.759 108.764 205.759 109.804V117.648C205.759 118.688 205.334 119.685 204.577 120.42C203.821 121.156 202.795 121.569 201.725 121.569Z" fill="#961B20"/>
<path d="M100.286 105.883H141.207V113.726H100.286V105.883Z" fill="#D32B39"/>
<path d="M107.863 121.569H141.207V129.412H107.863V121.569Z" fill="#D32B39"/>
<path d="M117 137.255H141.207V145.098H117V137.255Z" fill="#D32B39"/>
<path d="M0 105.882H20.1724L28.2413 98.0388H80.6895L117 164.705H133.138L88.7584 82.3525H20.1724L0 105.882Z" fill="#E82F3E"/>
<path d="M161.381 66.6665H169.45V74.5096H161.381V66.6665Z" fill="#CBCBCB"/>
<defs>
<linearGradient id="paint0_linear_1934_6281" x1="59.4059" y1="58.7696" x2="103.349" y2="79.2512" gradientUnits="userSpaceOnUse">
<stop stop-color="#C6D7F1"/>
<stop offset="1" stop-color="#D2E4FF"/>
</linearGradient>
</defs>
</svg>
