<svg width="140" height="120" viewBox="0 0 140 120" fill="none" xmlns="http://www.w3.org/2000/svg">
<path d="M84.4824 56.4703H118.703C121.791 56.4703 124.752 57.6659 126.935 59.794C129.118 61.9221 130.344 64.8084 130.344 67.818V98.8233H84.4824V56.4703Z" fill="#D32B39"/>
<path d="M125.518 89.4116H135.173C136.453 89.4116 137.681 89.9074 138.586 90.7899C139.492 91.6725 140 92.8694 140 94.1175C140 95.3656 139.492 96.5625 138.586 97.4451C137.681 98.3276 136.453 98.8234 135.173 98.8234H130.345L125.518 89.4116Z" fill="#A8A8A8"/>
<path d="M98.9665 47.0588C98.3263 47.0588 97.7124 46.8109 97.2597 46.3697C96.807 45.9284 96.5527 45.3299 96.5527 44.7059V30.5882C96.5527 30.2009 96.6508 29.8196 96.8383 29.4781C97.0258 29.1366 97.2969 28.8455 97.6275 28.6306L104.869 23.9247C105.402 23.5825 106.051 23.4597 106.677 23.5833C107.302 23.7068 107.852 24.0666 108.206 24.584C108.559 25.1014 108.689 25.7343 108.565 26.3445C108.442 26.9546 108.076 27.4923 107.547 27.84L101.38 31.8474V44.7059C101.38 45.3299 101.126 45.9284 100.673 46.3697C100.221 46.8109 99.6067 47.0588 98.9665 47.0588Z" fill="#EAEAE8"/>
<path d="M24.9431 70.5886L16.897 58.8239H48.2763L70.0004 98.8238H56.7246L24.9431 70.5886Z" fill="#961B20"/>
<path d="M12.0679 49.4116L21.723 9.41162H69.9989L84.4817 56.4704H79.6541V98.8234L53.0336 49.3754L12.0679 49.4116Z" fill="#EAEAE8"/>
<path d="M94.1382 44.7058H103.793V98.8235H94.1382V44.7058Z" fill="#A8A8A8"/>
<path d="M27.723 120C43.034 120 55.446 107.901 55.446 92.9757C55.446 78.0507 43.034 65.9515 27.723 65.9515C12.412 65.9515 0 78.0507 0 92.9757C0 107.901 12.412 120 27.723 120Z" fill="#68737F"/>
<path d="M8.81035 92.5796L1.56897 97.2855C1.2254 97.5098 0.828571 97.6445 0.416386 97.6766C0.138214 96.1247 -0.0011026 94.5521 6.57078e-06 92.9766C6.57078e-06 92.8678 6.63981e-06 92.7561 0.00302388 92.6472L6.13406 88.6649C6.66664 88.3377 7.30926 88.2264 7.92489 88.3545C8.54051 88.4826 9.08044 88.8401 9.42953 89.3507C9.77863 89.8614 9.90927 90.4847 9.7936 91.0879C9.67793 91.6911 9.3251 92.2264 8.81035 92.5796Z" fill="#4F5761"/>
<path d="M14.0626 105.732L12.3549 114.05C12.2754 114.445 12.0924 114.812 11.8238 115.118C10.4094 114.15 9.09019 113.056 7.8833 111.85L9.32856 104.809C9.45419 104.197 9.82406 103.659 10.3568 103.313C10.6206 103.141 10.9164 103.022 11.2274 102.962C11.5384 102.902 11.8584 102.903 12.1693 102.963C12.4801 103.024 12.7757 103.144 13.0391 103.316C13.3024 103.488 13.5285 103.708 13.7043 103.966C13.8801 104.223 14.0022 104.511 14.0637 104.814C14.1252 105.117 14.1248 105.429 14.0626 105.732Z" fill="#4F5761"/>
<path d="M17.477 77.8148C17.3677 78.3474 17.0726 78.8267 16.642 79.1714C16.2114 79.5161 15.6717 79.705 15.1145 79.706C14.9545 79.7057 14.7949 79.6909 14.6378 79.6618L6.10502 77.9971C5.70042 77.919 5.32324 77.7408 5.00977 77.4795C6.00196 76.1001 7.12422 74.8141 8.36192 73.6383L15.5852 75.0471C15.8959 75.1076 16.1914 75.2271 16.4547 75.399C16.718 75.5708 16.944 75.7916 17.1197 76.0486C17.2954 76.3057 17.4174 76.594 17.4787 76.897C17.54 77.2001 17.5394 77.5119 17.477 77.8148Z" fill="#4F5761"/>
<path d="M32.5431 119.594C30.9511 119.865 29.3378 120.001 27.7216 120C27.61 120 27.4983 120 27.3867 119.997L23.3013 114.02C23.1159 113.764 22.985 113.473 22.9165 113.166C22.848 112.86 22.8432 112.542 22.9024 112.234C22.9616 111.925 23.0836 111.631 23.2612 111.369C23.4388 111.107 23.6684 110.882 23.9365 110.708C24.2046 110.534 24.5058 110.414 24.8222 110.355C25.1387 110.296 25.464 110.299 25.7791 110.365C26.0942 110.431 26.3926 110.557 26.6568 110.737C26.9209 110.916 27.1455 111.146 27.3173 111.412L32.1449 118.47C32.3753 118.805 32.5126 119.192 32.5431 119.594Z" fill="#4F5761"/>
<path d="M31.4748 75.1939C30.9422 75.5397 30.2905 75.6651 29.6631 75.5427C29.0356 75.4203 28.4837 75.06 28.1287 74.541L23.3011 67.4822C23.0707 67.1477 22.9334 66.7605 22.9028 66.3587C24.4939 66.0874 26.1061 65.9516 27.7214 65.9528C27.833 65.9528 27.9477 65.9528 28.0593 65.9557L32.1446 71.9292C32.3207 72.1864 32.4431 72.4749 32.5047 72.7782C32.5664 73.0815 32.5661 73.3937 32.5039 73.6969C32.4417 74.0001 32.3188 74.2884 32.1422 74.5453C31.9656 74.8021 31.7388 75.0226 31.4748 75.1939Z" fill="#4F5761"/>
<path d="M47.5609 74.1026L46.1157 81.1408C46.0069 81.674 45.7122 82.154 45.2815 82.4993C44.8508 82.8446 44.3108 83.0338 43.7532 83.035C43.593 83.0352 43.4333 83.0194 43.2764 82.9879C42.649 82.8652 42.0972 82.5048 41.742 81.986C41.3867 81.4671 41.2571 80.8321 41.3816 80.2203L43.0894 71.8997C43.1695 71.5061 43.3524 71.1394 43.6204 70.835C45.0369 71.8004 46.3563 72.8945 47.5609 74.1026Z" fill="#4F5761"/>
<path d="M50.4365 108.473C49.4453 109.853 48.323 111.139 47.0843 112.314L39.8641 110.906C39.2418 110.778 38.6962 110.416 38.346 109.899C37.9957 109.382 37.869 108.751 37.9934 108.143C38.1178 107.535 38.4833 106.999 39.0104 106.653C39.5375 106.306 40.1836 106.176 40.8085 106.291L49.3442 107.956C49.7488 108.031 50.1256 108.21 50.4365 108.473Z" fill="#4F5761"/>
<path d="M55.4461 92.9765C55.4461 93.0853 55.4461 93.1941 55.443 93.303L49.315 97.2853C48.7825 97.6316 48.1306 97.7576 47.5028 97.6354C46.875 97.5132 46.3227 97.153 45.9674 96.6338C45.6121 96.1147 45.4829 95.4793 45.6082 94.8673C45.7336 94.2553 46.1032 93.7169 46.6357 93.3706L53.8771 88.6647C54.2204 88.4409 54.6177 88.3081 55.0297 88.2794C55.3079 89.8304 55.4472 91.402 55.4461 92.9765Z" fill="#4F5761"/>
<path d="M27.7231 105.952C35.0748 105.952 41.0345 100.142 41.0345 92.9759C41.0345 85.8095 35.0748 80 27.7231 80C20.3714 80 14.4116 85.8095 14.4116 92.9759C14.4116 100.142 20.3714 105.952 27.7231 105.952Z" fill="#EAEAE8"/>
<path d="M27.7234 103.53C33.7027 103.53 38.5499 98.8046 38.5499 92.976C38.5499 87.1475 33.7027 82.4225 27.7234 82.4225C21.7441 82.4225 16.897 87.1475 16.897 92.976C16.897 98.8046 21.7441 103.53 27.7234 103.53Z" fill="#EAEAE8"/>
<path d="M111.313 120C122.132 120 130.902 111.451 130.902 100.905C130.902 90.3589 122.132 81.8097 111.313 81.8097C100.494 81.8097 91.7236 90.3589 91.7236 100.905C91.7236 111.451 100.494 120 111.313 120Z" fill="#68737F"/>
<path d="M97.6616 102.182L93.4042 105.07C93.0807 105.288 92.7081 105.426 92.318 105.473C91.9216 103.941 91.722 102.366 91.7236 100.785C91.7236 100.682 91.7236 100.576 91.7267 100.473L94.9038 98.3204C95.1637 98.1381 95.4582 98.008 95.7701 97.9377C96.0821 97.8674 96.4053 97.8583 96.7209 97.9109C97.0365 97.9635 97.3382 98.0768 97.6084 98.2442C97.8786 98.4116 98.112 98.6297 98.295 98.8859C98.4779 99.142 98.6067 99.4311 98.6739 99.7362C98.7411 100.041 98.7454 100.357 98.6864 100.663C98.6275 100.97 98.5065 101.262 98.3306 101.523C98.1546 101.784 97.9272 102.008 97.6616 102.182Z" fill="#4F5761"/>
<path d="M102.673 111.182L101.756 116.158C101.686 116.534 101.525 116.887 101.285 117.188C99.8011 116.325 98.4406 115.275 97.2388 114.064L97.9207 110.353C97.9765 110.048 98.0933 109.758 98.2643 109.498C98.4354 109.238 98.6573 109.013 98.9174 108.836C99.1776 108.66 99.4708 108.535 99.7805 108.469C100.09 108.403 100.41 108.397 100.722 108.451C101.034 108.506 101.332 108.619 101.599 108.786C101.866 108.953 102.097 109.169 102.278 109.423C102.459 109.676 102.587 109.962 102.655 110.264C102.723 110.566 102.729 110.878 102.673 111.182Z" fill="#4F5761"/>
<path d="M103.449 90.4619C103.349 91.0048 103.056 91.4961 102.622 91.8502C102.188 92.2044 101.64 92.399 101.075 92.4001C100.931 92.4004 100.787 92.3876 100.646 92.3619L95.5409 91.4707C95.1554 91.4034 94.7928 91.2448 94.4849 91.0089C95.3703 89.5625 96.4477 88.2364 97.6892 87.0648L101.5 87.7325C101.812 87.7868 102.11 87.9005 102.377 88.0671C102.643 88.2337 102.874 88.4499 103.055 88.7034C103.236 88.9569 103.364 89.2426 103.432 89.5444C103.499 89.8461 103.505 90.1579 103.449 90.4619Z" fill="#4F5761"/>
<path d="M113.239 88.1853C112.713 88.5412 112.064 88.6791 111.433 88.5688C110.803 88.4585 110.244 88.109 109.878 87.5971L106.918 83.4471C106.669 83.0994 106.521 82.6931 106.489 82.2706C108.066 81.8832 109.685 81.6876 111.311 81.6882C111.389 81.6882 111.468 81.6882 111.546 81.6912L113.842 84.9088C114.207 85.4216 114.348 86.0545 114.235 86.6686C114.122 87.2828 113.764 87.8282 113.239 88.1853Z" fill="#4F5761"/>
<path d="M116.12 119.3C114.548 119.687 112.932 119.881 111.31 119.88C111.205 119.88 111.099 119.88 110.994 119.877L108.782 116.78C108.601 116.526 108.473 116.24 108.405 115.938C108.338 115.636 108.332 115.324 108.388 115.02C108.444 114.715 108.561 114.425 108.732 114.165C108.903 113.904 109.125 113.68 109.385 113.503C109.646 113.327 109.939 113.202 110.249 113.136C110.559 113.07 110.879 113.064 111.191 113.119C111.503 113.173 111.801 113.287 112.068 113.454C112.335 113.621 112.566 113.838 112.747 114.091L115.707 118.241C115.931 118.556 116.073 118.92 116.12 119.3Z" fill="#4F5761"/>
<path d="M125.405 87.5236L124.705 91.3383C124.604 91.8812 124.312 92.3725 123.878 92.7267C123.444 93.0808 122.896 93.2754 122.33 93.2766C122.187 93.2754 122.043 93.2626 121.902 93.2383C121.59 93.1837 121.292 93.0697 121.025 92.9028C120.758 92.7359 120.528 92.5195 120.347 92.2657C120.166 92.012 120.038 91.726 119.97 91.424C119.902 91.1221 119.897 90.8101 119.953 90.506L120.867 85.5295C120.942 85.118 121.13 84.7339 121.41 84.4177C122.875 85.278 124.219 86.3222 125.405 87.5236Z" fill="#4F5761"/>
<path d="M128.095 110.644C127.191 112.1 126.093 113.432 124.83 114.606L121.128 113.959C120.816 113.904 120.518 113.79 120.251 113.623C119.984 113.457 119.754 113.24 119.573 112.986C119.392 112.733 119.264 112.447 119.196 112.145C119.129 111.843 119.123 111.531 119.179 111.227C119.235 110.922 119.352 110.632 119.523 110.372C119.694 110.112 119.916 109.887 120.177 109.711C120.437 109.534 120.73 109.41 121.04 109.344C121.35 109.278 121.67 109.272 121.982 109.327L127.087 110.221C127.452 110.284 127.797 110.429 128.095 110.644Z" fill="#4F5761"/>
<path d="M130.902 100.785C130.902 100.929 130.899 101.073 130.896 101.218L127.722 103.37C127.196 103.727 126.547 103.865 125.916 103.755C125.286 103.645 124.726 103.295 124.361 102.782C123.995 102.27 123.853 101.637 123.966 101.022C124.079 100.408 124.438 99.8623 124.964 99.5058L129.221 96.6205C129.552 96.3949 129.936 96.2552 130.338 96.2146C130.713 97.7105 130.903 99.2451 130.902 100.785Z" fill="#4F5761"/>
<path d="M111.314 108.235C115.467 108.235 118.834 104.953 118.834 100.905C118.834 96.8562 115.467 93.5742 111.314 93.5742C107.161 93.5742 103.794 96.8562 103.794 100.905C103.794 104.953 107.161 108.235 111.314 108.235Z" fill="#EAEAE8"/>
<path d="M76.7522 61.6359C76.3544 61.6365 75.9627 61.5411 75.6118 61.3583C75.261 61.1755 74.962 60.911 74.7416 60.5882L67.9908 50.7176C67.8129 50.4606 67.6889 50.1718 67.6259 49.8679C67.5629 49.564 67.5622 49.2509 67.6237 48.9468C67.6852 48.6426 67.8078 48.3532 67.9844 48.0954C68.1611 47.8375 68.3882 47.6162 68.6528 47.4442C68.9175 47.2722 69.2144 47.1529 69.5265 47.0931C69.8386 47.0333 70.1597 47.0343 70.4715 47.0958C70.7832 47.1574 71.0793 47.2785 71.3429 47.452C71.6065 47.6256 71.8323 47.8482 72.0073 48.107L78.7581 57.9779C79.0004 58.3321 79.1397 58.7437 79.1609 59.169C79.1822 59.5942 79.0847 60.0171 78.8788 60.3926C78.673 60.7681 78.3664 61.082 77.9919 61.3011C77.6174 61.5201 77.189 61.636 76.7522 61.6364V61.6359Z" fill="#A8A8A8"/>
<path d="M65.1744 54.1174C64.6676 54.1178 64.1736 53.9627 63.7623 53.6741C63.351 53.3855 63.0434 52.978 62.8829 52.5094C62.7225 52.0408 62.7174 51.5349 62.8684 51.0633C63.0195 50.5918 63.3189 50.1785 63.7243 49.8821L70.9657 44.588C71.2193 44.4026 71.5078 44.2677 71.8149 44.191C72.122 44.1144 72.4415 44.0974 72.7553 44.1411C73.0691 44.1848 73.371 44.2883 73.6438 44.4457C73.9165 44.6032 74.1548 44.8114 74.345 45.0586C74.5352 45.3058 74.6736 45.5871 74.7522 45.8864C74.8309 46.1857 74.8483 46.4972 74.8035 46.8031C74.7587 47.109 74.6525 47.4033 74.491 47.6692C74.3295 47.9351 74.1158 48.1673 73.8622 48.3527L66.6209 53.6468C66.2039 53.9526 65.6962 54.1178 65.1744 54.1174Z" fill="#CBCBCB"/>
<path d="M84.4838 56.4703H76.639C74.8785 56.4703 56.4697 56.4703 56.4697 56.4703L60.001 62.4997L70.001 81.4703L79.0528 98.8233H84.4838V56.4703Z" fill="#961B20"/>
<path d="M23.5357 0H68.1908C69.3111 0 70.3856 0.433822 71.1778 1.20603C71.9699 1.97824 72.415 3.02558 72.415 4.11765V9.41176H19.3115V4.11765C19.3115 3.02558 19.7566 1.97824 20.5487 1.20603C21.3409 0.433822 22.4154 0 23.5357 0Z" fill="#E82F3E"/>
<path d="M31.3794 9.41162H41.0346V49.4116H31.3794V9.41162Z" fill="#961B20"/>
<path d="M113.449 72.9414C112.809 72.9414 112.195 72.6935 111.742 72.2523C111.289 71.811 111.035 71.2125 111.035 70.5885V65.8826C111.035 65.2586 111.289 64.6601 111.742 64.2188C112.195 63.7776 112.809 63.5297 113.449 63.5297C114.089 63.5297 114.703 63.7776 115.156 64.2188C115.608 64.6601 115.863 65.2586 115.863 65.8826V70.5885C115.863 71.2125 115.608 71.811 115.156 72.2523C114.703 72.6935 114.089 72.9414 113.449 72.9414Z" fill="#961B20"/>
<path d="M120.69 72.9414C120.05 72.9414 119.436 72.6935 118.983 72.2523C118.531 71.811 118.276 71.2125 118.276 70.5885V65.8826C118.276 65.2586 118.531 64.6601 118.983 64.2188C119.436 63.7776 120.05 63.5297 120.69 63.5297C121.33 63.5297 121.944 63.7776 122.397 64.2188C122.85 64.6601 123.104 65.2586 123.104 65.8826V70.5885C123.104 71.2125 122.85 71.811 122.397 72.2523C121.944 72.6935 121.33 72.9414 120.69 72.9414Z" fill="#961B20"/>
<path d="M60 63.5297H84.4827V68.2355H60V63.5297Z" fill="#D32B39"/>
<path d="M64.5337 72.9413H84.4827V77.6472H64.5337V72.9413Z" fill="#D32B39"/>
<path d="M70 82.3529H84.4828V87.0588H70V82.3529Z" fill="#D32B39"/>
<path d="M0 63.5293H12.069L16.8965 58.8234H48.2759L70 98.8234H79.6552L53.1034 49.4116H12.069L0 63.5293Z" fill="#E82F3E"/>
<path d="M96.5527 40H101.38V44.7059H96.5527V40Z" fill="#CBCBCB"/>
</svg>
