<svg width="20" height="20" viewBox="0 0 20 20" fill="none" xmlns="http://www.w3.org/2000/svg">
<path fill-rule="evenodd" clip-rule="evenodd" d="M8.98672 8.92798C8.95895 9.03523 8.91042 9.13595 8.84395 9.2244C8.7202 9.38573 8.55643 9.51155 8.36903 9.58925C8.20045 9.6622 8.02198 9.70937 7.8395 9.72915C7.80197 9.73392 7.7631 9.7369 7.72545 9.73975L7.71925 9.74022C7.60368 9.74465 7.49255 9.7861 7.40212 9.85855C7.31172 9.931 7.24675 10.0306 7.21677 10.1428C7.20305 10.1987 7.19285 10.2553 7.18622 10.3124C7.17572 10.3986 7.17032 10.4868 7.16447 10.5822C7.16027 10.6506 7.15585 10.7228 7.14915 10.8006C7.1099 11.1174 7.01865 11.4256 6.87913 11.7125C6.8506 11.7728 6.82155 11.8312 6.793 11.8887C6.64002 12.1964 6.50178 12.4745 6.54148 12.8469C6.57253 13.1337 6.7188 13.326 6.9132 13.5242C7.0055 13.6191 7.12792 13.7001 7.255 13.7843C7.61063 14.0197 8.00273 14.2793 7.87355 14.9333C7.76785 15.4633 6.89315 16.0194 5.66375 16.2136C5.78303 16.1955 5.52035 15.7452 5.49117 15.6952L5.48942 15.6923C5.45552 15.6389 5.4208 15.5864 5.38615 15.5339C5.28606 15.3825 5.18645 15.2318 5.10868 15.0647C4.90328 14.6284 4.8081 14.1236 4.89226 13.6455C4.9685 13.2128 5.25327 12.8671 5.52745 12.5343C5.57215 12.4801 5.61658 12.4262 5.65975 12.3723C6.02647 11.9148 6.41123 11.3154 6.49638 10.7216C6.50355 10.67 6.50997 10.6138 6.51673 10.5546C6.5288 10.4486 6.54195 10.3333 6.5625 10.2183C6.59308 10.0198 6.65497 9.82753 6.74587 9.64863C6.8079 9.5313 6.88958 9.4256 6.98733 9.3361C7.0383 9.2886 7.07193 9.2253 7.08283 9.1563C7.09373 9.08733 7.08127 9.01667 7.04745 8.95565L5.08764 5.41473L7.9026 8.90433C7.93467 8.94475 7.9752 8.9776 8.0213 9.00055C8.06742 9.02347 8.118 9.03595 8.16943 9.03705C8.22087 9.03815 8.27192 9.02787 8.31897 9.00695C8.36602 8.986 8.40793 8.95493 8.44165 8.9159C8.47732 8.87413 8.49755 8.82128 8.4989 8.76625C8.50028 8.71125 8.4827 8.65745 8.44917 8.61392C8.3183 8.44592 8.1821 8.27562 8.04653 8.10612C7.99172 8.0376 7.93678 7.9689 7.88258 7.90083L7.1742 7.02012L5.75242 5.26172L2.90039 1.75L5.9348 5.10422L7.44823 6.7851L8.2032 7.62755C8.27255 7.70603 8.34193 7.78377 8.4113 7.86155C8.59243 8.0646 8.77352 8.26767 8.95465 8.4831L8.99573 8.53342L9.00475 8.61142C9.01697 8.7172 9.01087 8.82428 8.98672 8.92798ZM16.2219 10.1115L16.2249 10.116C16.2244 9.7406 15.9929 9.1211 15.5245 8.52525L15.5135 8.51065C15.3693 8.3315 15.212 8.1633 15.0431 8.0074C15.0115 7.9767 14.9775 7.9465 14.9429 7.9163C14.7265 7.7267 14.49 7.56165 14.2375 7.42413L14.2195 7.41505C13.4264 6.98125 12.3945 6.7578 11.122 7.00943C10.951 6.801 10.767 6.60382 10.5709 6.4191C10.2706 6.13162 9.9171 5.90613 9.53038 5.7553C9.14715 5.6144 8.73675 5.5641 8.33105 5.60835C8.72213 5.64372 9.10305 5.753 9.45375 5.93045C9.79243 6.11272 10.0974 6.35205 10.3555 6.63802C10.6171 6.92992 10.8629 7.23567 11.0919 7.55395C11.111 7.57888 11.1301 7.60385 11.1492 7.62885C11.3734 7.9221 11.6017 8.22087 11.886 8.4865C12.0424 8.6344 12.217 8.76175 12.4055 8.86545C12.4556 8.8911 12.5062 8.91528 12.5558 8.9364C12.6053 8.95755 12.6519 8.97718 12.7021 8.99528C12.7987 9.03302 12.8989 9.06423 12.9991 9.09293C13.3999 9.20765 13.8102 9.24892 14.211 9.27107C14.2668 9.27402 14.3224 9.27677 14.3779 9.27952C14.521 9.28662 14.6629 9.29362 14.8026 9.30377C14.9941 9.3152 15.184 9.3452 15.3697 9.39335C15.6487 9.46642 15.8944 9.6334 16.0656 9.86642C16.1238 9.94403 16.1761 10.0259 16.2219 10.1115ZM10.0955 10.1584C10.4196 10.7316 9.6947 10.9093 9.35453 10.9419C8.83905 10.9923 8.73233 10.6938 8.83302 10.3189C8.86605 10.1847 8.9394 10.0639 9.04308 9.973C9.14678 9.88207 9.2758 9.8254 9.41265 9.81063C9.5475 9.79823 9.6831 9.82425 9.8039 9.88577C9.92467 9.94727 10.0258 10.0418 10.0955 10.1584ZM14.5553 11.7155C13.2665 11.1901 11.9183 10.6405 12.1191 9.09815C12.5494 9.55967 13.2248 9.65648 13.9595 9.76175C14.6259 9.85725 15.3411 9.95972 15.9661 10.3477C17.441 11.2626 17.2255 13.0401 16.7246 13.6944C16.7697 12.6181 15.6853 12.1761 14.5553 11.7155ZM15.045 8.00663C15.0249 7.98793 15.0044 7.96943 14.984 7.951C14.9708 7.93915 14.9578 7.92735 14.9448 7.91552C14.9548 7.92467 14.9648 7.93393 14.9748 7.9432C14.9983 7.96505 15.0218 7.98682 15.045 8.00663ZM9.26493 6.40667C9.05153 6.15907 8.72038 6.02925 8.39575 5.98193C8.3836 6.06315 8.3759 6.14495 8.3727 6.22703C8.35818 6.9029 8.59713 7.6452 9.05953 8.16105C9.20745 8.3278 9.38585 8.46448 9.58505 8.56365C9.70027 8.62003 10.0059 8.75992 10.1191 8.6341C10.1277 8.62257 10.1331 8.60895 10.1348 8.59462C10.1365 8.5803 10.1343 8.5658 10.1286 8.55258C10.1098 8.4987 10.0736 8.4498 10.0376 8.40128C10.0121 8.36688 9.9867 8.33262 9.9678 8.29693C9.94865 8.2609 9.92817 8.2258 9.9077 8.1907C9.86928 8.1248 9.8309 8.059 9.80148 7.98742C9.72385 7.80002 9.68342 7.60075 9.64313 7.4021C9.63505 7.3623 9.62698 7.3225 9.61863 7.28285C9.557 6.97637 9.47835 6.65427 9.26493 6.40667ZM13.8249 11.7984C13.4938 12.7264 14.0278 13.5103 14.5586 14.2896C15.1523 15.1612 15.7421 16.0271 15.1129 17.0826C16.3357 16.5753 16.9164 15.0428 16.4089 13.827C16.0891 13.0579 15.3184 12.641 14.603 12.2541C14.3254 12.1039 14.0562 11.9583 13.8249 11.7984ZM10.2394 14.015C10.0178 14.1059 9.8088 14.2251 9.61767 14.3698C10.0522 14.2115 10.5084 14.121 10.9703 14.1016C11.054 14.0966 11.1383 14.0927 11.2233 14.0888C11.3701 14.082 11.5194 14.0751 11.6717 14.0623C11.9213 14.0453 12.1675 13.9945 12.4036 13.9114C12.651 13.8244 12.8762 13.6835 13.0629 13.4987C13.2515 13.308 13.3838 13.0684 13.4451 12.8067C13.499 12.5595 13.4915 12.3027 13.423 12.0591C13.3546 11.8155 13.2275 11.5926 13.0528 11.4101C13.1371 11.6248 13.1889 11.8509 13.2066 12.081C13.2219 12.2952 13.1929 12.5102 13.1215 12.7126C13.0518 12.9044 12.9377 13.0768 12.7888 13.2158C12.635 13.3562 12.4569 13.4671 12.2633 13.543C11.9943 13.6518 11.6901 13.6964 11.3732 13.7428C11.2287 13.764 11.0814 13.7855 10.9337 13.8137C10.6962 13.8574 10.4636 13.9249 10.2394 14.015ZM14.0798 17.8463L14.0604 17.862C14.0044 17.9073 13.9474 17.9533 13.8861 17.9946C13.808 18.0464 13.7261 18.0921 13.6412 18.1315C13.4643 18.2182 13.2698 18.2625 13.073 18.2609C12.54 18.2508 12.1633 17.8522 11.9429 17.4018C11.885 17.2837 11.8342 17.1621 11.7832 17.0403C11.7018 16.8456 11.6203 16.6507 11.5105 16.4708C11.2555 16.0526 10.8192 15.7159 10.3082 15.7783C10.0998 15.8045 9.9044 15.8986 9.78867 16.0802C9.48407 16.5548 9.92142 17.2196 10.479 17.1255C10.5264 17.1183 10.5729 17.1054 10.6173 17.0873C10.6616 17.0683 10.7029 17.0431 10.74 17.0123C10.8179 16.9471 10.8766 16.8619 10.9099 16.7657C10.9465 16.6654 10.9546 16.5569 10.9334 16.4522C10.9105 16.3428 10.8462 16.2466 10.754 16.1839C10.8612 16.2343 10.9447 16.3245 10.987 16.4355C11.0309 16.5498 11.0422 16.6741 11.0196 16.7944C10.9977 16.9198 10.9426 17.0369 10.8602 17.1336C10.8165 17.1833 10.7659 17.2265 10.7099 17.2619C10.6546 17.2969 10.5952 17.3251 10.5331 17.346C10.4073 17.3891 10.2733 17.4031 10.1413 17.3867C9.95605 17.3602 9.78127 17.284 9.63538 17.1663C9.60948 17.1457 9.58455 17.1242 9.5604 17.1019C9.45958 17.0149 9.36815 16.9173 9.2877 16.8109C9.2524 16.7718 9.2165 16.7333 9.179 16.6962C9.00037 16.508 8.78965 16.3534 8.55678 16.2398C8.3962 16.169 8.22813 16.1166 8.0558 16.0838C7.96915 16.0657 7.88147 16.0526 7.7938 16.0415C7.7843 16.0406 7.766 16.0374 7.74325 16.0334C7.67005 16.0206 7.55078 15.9998 7.52978 16.0194C7.80075 15.7688 8.09615 15.5462 8.4115 15.3551C8.73527 15.1621 9.08292 15.0126 9.4455 14.9107C9.82142 14.8044 10.2146 14.7741 10.6023 14.8216C10.8018 14.8457 10.9973 14.8965 11.1834 14.9726C11.3784 15.0508 11.5584 15.1625 11.7154 15.3027C11.8708 15.4497 11.9963 15.6256 12.0851 15.8206C12.1653 16.0031 12.2251 16.194 12.2635 16.3898C12.284 16.4951 12.2995 16.6108 12.3155 16.7306C12.3886 17.2765 12.4729 17.9065 13.0986 18.0163C13.1384 18.024 13.1785 18.0297 13.2189 18.0334L13.3436 18.0364C13.4293 18.0303 13.5145 18.018 13.5986 17.9997C13.7726 17.9586 13.9423 17.9004 14.1051 17.826L14.0957 17.8335L14.0798 17.8463ZM9.31532 16.8416C9.3348 16.8641 9.35458 16.8864 9.37465 16.9083C9.36587 16.8985 9.3571 16.8886 9.34832 16.8787C9.33735 16.8664 9.32632 16.854 9.31532 16.8416Z" fill="#FF007A"/>
</svg>
