<svg fill="none" height="14" viewBox="0 0 18 14" width="18" xmlns="http://www.w3.org/2000/svg"><path clip-rule="evenodd" d="m15.1214 0c.8236 0 1.4913.7344 1.4913 1.64033v2.82289h-4.7688c-1.261 0-2.28565 1.11315-2.30602 2.49483l-.00031.04195c0 1.38702 1.01203 2.51404 2.26823 2.53644l.0381.00034h4.7688v2.82292c0 .9059-.6677 1.6403-1.4913 1.6403h-13.63007c-.823639 0-1.49133-.7344-1.49133-1.6403v-10.71937c0-.90593.667691-1.64033 1.49133-1.64033zm2.2543 5.18801c.3448 0 .6243.30742.6243.68665v2.25068c0 .37923-.2795.68665-.6243.68665h-5.3584c-.9098 0-1.6474-.81126-1.6474-1.81199s.7376-1.81199 1.6474-1.81199z" fill="#f5ce81" fill-rule="evenodd"/></svg>